<?xml version="1.0" encoding="iso-8859-1"?>

<!DOCTYPE svg PUBLIC "-//W3C//DTD SVG 1.1//EN" "http://www.w3.org/Graphics/SVG/1.1/DTD/svg11.dtd">
<!-- Uploaded to: SVG Repo, www.svgrepo.com, Generator: SVG Repo Mixer Tools -->
<svg height="800px" width="800px" version="1.1" id="_x34_" xmlns="http://www.w3.org/2000/svg"
     xmlns:xlink="http://www.w3.org/1999/xlink"
     viewBox="0 0 512 512" xml:space="preserve">
<g>
	<polygon style="fill:#7D7D7E;" points="301.525,189.241 301.525,224.783 300.594,224.783 289.559,225.499 0,225.499 0,75.812 
		3.081,73.016 15.549,61.623 18.702,58.685 40.199,38.908 45.429,34.108 45.573,33.965 70.939,49.371 247.497,156.495 
		268.708,169.322 278.524,175.269 294.575,185.015 	"/>
    <polygon style="fill:#F7F7F7;" points="256.025,178.135 246.279,184.943 230.515,195.906 187.952,225.499 33.391,333.054
		33.319,333.126 19.275,342.871 11.895,348.03 10.032,349.32 7.094,351.326 5.159,352.687 0,356.27 0,0 1.003,0.716 19.992,13.972 
		70.939,49.371 237.179,165.023 246.279,171.399 	"/>
    <polygon style="fill:#E9E8E8;" points="512,0.023 512,356.295 511.015,355.605 498.56,346.942 256.008,178.135 265.706,171.39
		275.207,164.794 	"/>
    <polygon style="fill:#7D7D7E;" points="506.781,356.295 5.235,356.295 5.579,356 18.428,345.416 31.622,334.536 32.458,333.846
		33.394,333.059 58.058,312.727 58.156,312.628 237.153,164.991 256.008,149.434 274.912,164.991 454.303,313.023 454.549,313.22 
		478.524,333.01 479.853,334.093 	"/>
    <polygon style="fill:#F4F4F5;" points="512,356.295 0.017,356.295 5.579,352.11 16.459,343.939 30.292,333.551 32.458,331.927
		58.058,312.727 58.156,312.628 246.31,171.39 256.008,164.104 264.229,170.307 265.706,171.39 454.303,313.023 454.549,313.22 
		479.853,332.221 506.781,352.406 511.015,355.605 511.064,355.605 	"/>
    <g>
		<polygon style="fill:#DC536A;"
                 points="13.391,39.267 13.391,63.916 8.858,61.623 0,57.109 0,32.388 1.339,33.033 		"/>
        <polygon style="fill:#37ADD6;" points="13.391,84.482 13.391,109.131 0,102.252 0,77.603 		"/>
        <polygon style="fill:#DC536A;" points="13.391,129.696 13.391,154.346 0,147.467 0,122.817 		"/>
        <polygon style="fill:#37ADD6;" points="13.391,174.91 13.391,199.56 0,192.681 0,167.96 		"/>
        <polygon style="fill:#DC536A;" points="13.391,220.125 13.391,244.774 0,237.895 0,213.246 		"/>
        <polygon style="fill:#37ADD6;" points="13.391,265.34 13.391,289.989 0,283.11 0,258.461 		"/>
        <polygon style="fill:#DC536A;" points="13.391,310.554 13.391,335.204 0,328.254 0,303.675 		"/>
        <polygon style="fill:#37ADD6;" points="13.398,355.754 13.398,356.295 0.024,356.295 0.024,348.862 0.944,349.353 7.454,352.702
					"/>
	</g>
    <g>
		<polygon style="fill:#DC536A;"
                 points="498.262,39.26 498.262,63.923 502.914,61.61 512,57.08 512,32.367 		"/>
        <polygon style="fill:#37ADD6;" points="498.262,84.501 498.262,109.116 512,102.224 512,77.61 		"/>
        <polygon style="fill:#DC536A;" points="498.262,129.693 498.262,154.357 512,147.466 512,122.802 		"/>
        <polygon style="fill:#37ADD6;" points="498.262,174.885 498.262,199.549 512,192.658 512,167.994 		"/>
        <polygon style="fill:#DC536A;" points="498.262,220.127 498.262,244.792 512,237.899 512,213.235 		"/>
        <polygon style="fill:#37ADD6;" points="498.262,265.32 498.262,289.984 512,283.091 512,258.428 		"/>
        <polygon style="fill:#DC536A;" points="498.262,310.561 498.262,335.176 512,328.284 512,303.67 		"/>
        <polygon style="fill:#37ADD6;" points="498.262,355.754 498.262,356.295 512,356.295 512,348.862 511.055,349.353
			504.368,352.702 		"/>
	</g>
    <g>
		<polygon style="fill:#DC536A;"
                 points="507.64,342.856 493.036,356.295 456.774,356.295 471.378,342.856 		"/>
        <polygon style="fill:#37ADD6;"
                 points="441.123,342.856 426.519,356.295 390.202,356.295 404.805,342.856 		"/>
        <polygon style="fill:#DC536A;"
                 points="374.55,342.856 359.947,356.295 323.684,356.295 338.289,342.856 		"/>
        <polygon style="fill:#37ADD6;"
                 points="308.033,342.856 293.429,356.295 257.167,356.295 271.772,342.856 		"/>
        <polygon style="fill:#DC536A;"
                 points="241.516,342.856 226.912,356.295 190.65,356.295 205.254,342.856 		"/>
        <polygon style="fill:#37ADD6;"
                 points="174.999,342.856 160.395,356.295 124.133,356.295 138.737,342.856 		"/>
        <polygon style="fill:#DC536A;" points="108.482,342.856 93.878,356.295 57.561,356.295 72.165,342.856 		"/>
        <polygon style="fill:#37ADD6;"
                 points="41.91,342.856 30.116,353.735 27.25,356.295 11.93,356.295 11.93,342.856 		"/>
	</g>
    <polygon style="fill:#7D7D7E;" points="511.977,0 511.977,5.733 510.257,7.094 296.868,183.152 294.575,185.015 289.487,189.241
		281.462,195.835 255.953,216.901 230.515,195.906 222.49,189.241 215.109,183.223 40.199,38.908 15.477,18.488 0,5.733 0,0 	"/>
    <polygon style="fill:#F4F4F5;" points="511.977,0 506.962,3.798 283.182,171.829 278.524,175.269 274.726,178.135 265.77,184.871
		255.953,192.252 247.784,186.017 246.279,184.943 237.251,178.135 228.867,171.901 45.429,34.108 19.418,14.546 1.003,0.716 
		0.932,0.716 0,0 	"/>
</g>
</svg>